<svg id="Capa_1" enable-background="new 0 0 512 512" height="512" viewBox="0 0 512 512" width="512" xmlns="http://www.w3.org/2000/svg" xmlns:xlink="http://www.w3.org/1999/xlink"><linearGradient id="lg1"><stop offset="0" stop-color="#560dff"/><stop offset="1" stop-color="#73ecff"/></linearGradient><linearGradient id="SVGID_1_" gradientUnits="userSpaceOnUse" x1="74.98" x2="437.019" xlink:href="#lg1" y1="437.019" y2="74.98"/><radialGradient id="SVGID_2_" cx="254.478" cy="224.056" gradientUnits="userSpaceOnUse" r="290.237"><stop offset="0" stop-color="#6b23ea"/><stop offset=".0592" stop-color="#6a31eb" stop-opacity=".941"/><stop offset=".2867" stop-color="#6862ef" stop-opacity=".713"/><stop offset=".5017" stop-color="#6689f1" stop-opacity=".498"/><stop offset=".6986" stop-color="#64a5f3" stop-opacity=".301"/><stop offset=".871" stop-color="#63b6f5" stop-opacity=".129"/><stop offset="1" stop-color="#63bcf5" stop-opacity="0"/></radialGradient><linearGradient id="SVGID_3_" gradientUnits="userSpaceOnUse" x1="-308.602" x2="344.695" xlink:href="#lg1" y1="635.531" y2="-17.766"/><linearGradient id="SVGID_4_" gradientUnits="userSpaceOnUse" x1="-642.33" x2="395.483" xlink:href="#lg1" y1="1129.707" y2="91.893"/><linearGradient id="SVGID_5_" gradientUnits="userSpaceOnUse" x1="45.728" x2="532.835" xlink:href="#lg1" y1="415.078" y2="-72.028"/><linearGradient id="SVGID_6_" gradientUnits="userSpaceOnUse" x1="184.411" x2="389.227" y1="465.379" y2="260.562"><stop offset="0" stop-color="#389fff"/><stop offset=".1094" stop-color="#45affa"/><stop offset=".5181" stop-color="#73e9e7"/><stop offset=".7148" stop-color="#85ffe0"/></linearGradient><linearGradient id="SVGID_7_" gradientUnits="userSpaceOnUse" x1="256" x2="256" y1="406.467" y2="321.904"><stop offset="0" stop-color="#63bcf5" stop-opacity="0"/><stop offset=".2036" stop-color="#63b9f5" stop-opacity=".204"/><stop offset=".3647" stop-color="#64aff4" stop-opacity=".365"/><stop offset=".5115" stop-color="#659ef3" stop-opacity=".511"/><stop offset=".6495" stop-color="#6687f1" stop-opacity=".65"/><stop offset=".7816" stop-color="#6768ef" stop-opacity=".782"/><stop offset=".9074" stop-color="#6943ec" stop-opacity=".907"/><stop offset="1" stop-color="#6b23ea"/></linearGradient><linearGradient id="lg2"><stop offset="0" stop-color="#389fff"/><stop offset=".1139" stop-color="#45affa"/><stop offset=".5397" stop-color="#73e9e7"/><stop offset=".7447" stop-color="#85ffe0"/><stop offset=".8554" stop-color="#9dffe6"/><stop offset="1" stop-color="#c2fff0"/></linearGradient><linearGradient id="SVGID_8_" gradientUnits="userSpaceOnUse" x1="50.92" x2="266.059" xlink:href="#lg2" y1="383.86" y2="168.721"/><linearGradient id="SVGID_9_" gradientUnits="userSpaceOnUse" x1="79.793" x2="377.375" xlink:href="#lg2" y1="519.091" y2="221.508"/><linearGradient id="lg3"><stop offset="0" stop-color="#389fff"/><stop offset=".1209" stop-color="#45affa"/><stop offset=".5726" stop-color="#73e9e7"/><stop offset=".79" stop-color="#85ffe0"/><stop offset=".881" stop-color="#9dffe6"/><stop offset="1" stop-color="#c2fff0"/></linearGradient><linearGradient id="SVGID_10_" gradientUnits="userSpaceOnUse" x1="123.451" x2="359.672" xlink:href="#lg3" y1="633.658" y2="397.437"/><linearGradient id="SVGID_11_" gradientUnits="userSpaceOnUse" x1="167.106" x2="322.05" xlink:href="#lg3" y1="475.501" y2="320.557"/><linearGradient id="SVGID_12_" gradientUnits="userSpaceOnUse" x1="14.442" x2="499.481" xlink:href="#lg1" y1="446.216" y2="-38.823"/><linearGradient id="SVGID_13_" gradientUnits="userSpaceOnUse" x1="74.615" x2="489.746" xlink:href="#lg1" y1="470.231" y2="55.099"/><g><circle cx="256" cy="256" fill="url(#SVGID_1_)" r="256"/><circle cx="256" cy="256" fill="url(#SVGID_2_)" r="256"/><path d="m97.5 104.376c-8.276.335-15.384 7.348-15.819 15.625-3.139 60.667-4.178 121.333-3.116 182 20.541 5.265 41.066 10.571 61.561 15.872-1.073-71.677-.281-143.355 2.374-215.032-15 .426-30 .938-45 1.535z" fill="url(#SVGID_3_)"/><path d="m414.5 104.376c-90.667-3.604-181.333-4.116-272-1.535-8.276.24-15.282 7.252-15.607 15.625-2.325 61.351-3.094 122.703-2.308 184.054 102.95.988 205.9.815 308.849-.519 1.062-60.667.023-121.333-3.116-182-.434-8.277-7.542-15.291-15.818-15.625z" fill="url(#SVGID_4_)"/><path d="m96.752 119.438c-2.631 55.897-3.647 111.794-3.047 167.691 108.197.862 216.394.862 324.591 0 .001-.101.002-.201.003-.301-107.606-54.943-218.008-115.377-321.547-167.39z" fill="url(#SVGID_5_)"/><path d="m308.198 374.118c-2.642-8.321-5.313-16.65-8.006-24.986-14.644-10.139-29.389-20.357-44.193-30.607-14.803 10.25-29.549 20.468-44.193 30.607-2.693 8.336-5.364 16.665-8.006 24.986-3.977 12.493-15.339 20.797-28.303 20.557-.002.001.183 7.647.184 7.647 53.545 1.02 107.089 1.02 160.634 0 .063-2.549.124-5.098.184-7.647-12.961.24-24.324-8.064-28.301-20.557z" fill="url(#SVGID_6_)"/><path d="m308.198 374.118c-2.642-8.321-5.313-16.65-8.006-24.986-14.644-10.139-29.389-20.357-44.193-30.607-14.803 10.25-29.549 20.468-44.193 30.607-2.693 8.336-5.364 16.665-8.006 24.986-3.977 12.493-15.339 20.797-28.303 20.557-.002.001.183 7.647.184 7.647 53.545 1.02 107.089 1.02 160.634 0 .063-2.549.124-5.098.184-7.647-12.961.24-24.324-8.064-28.301-20.557z" fill="url(#SVGID_7_)"/><path d="m124.586 302.519c-15.34-.147-30.68-.32-46.021-.519.175 10 .407 20 .696 30 .243 8.278 7.305 15.173 15.715 15.376 15.239.359 30.478.668 45.716.925-5.418-15.3-10.799-30.563-16.106-45.782z" fill="url(#SVGID_8_)"/><path d="m124.586 302.519c.13 10.113.302 20.226.516 30.339.181 8.372 7.181 15.298 15.592 15.443 92.11 1.555 184.22 1.247 276.33-.925 8.411-.204 15.472-7.099 15.715-15.376.289-10 .521-20 .696-30-102.95 1.335-205.9 1.508-308.849.519z" fill="url(#SVGID_9_)"/><path d="m369.031 393.971c-10.047.254-20.094.474-30.142.661-.123 5.097-.253 10.193-.389 15.29 10-.207 20-.452 30-.734 4.14-.118 7.632-3.622 7.791-7.817.158-4.195-3.097-7.504-7.26-7.4z" fill="url(#SVGID_10_)"/><path d="m346.218 402.122c.119-4.218-3.165-7.568-7.329-7.491-65.307 1.211-130.614.991-195.92-.661-4.163-.105-7.418 3.206-7.26 7.401.158 4.194 3.651 7.699 7.791 7.817 65 1.834 130 2.078 195 .734 4.14-.087 7.599-3.583 7.718-7.8z" fill="url(#SVGID_11_)"/><path d="m297.73 116.795c-66.993-.625-133.986.255-200.979 2.643 9.153 11.813 19.108 23.158 29.735 33.992 74.976 76.019 180.746 126.45 291.812 133.397.107-10.041.161-20.083.164-30.124-39.952-45.748-80.995-92.902-120.732-139.908z" fill="url(#SVGID_12_)"/><path d="m418.462 256.703c.011-45.755-1.06-91.51-3.214-137.265-39.173-1.396-78.345-2.277-117.518-2.643 12.567 65.317 59.385 118.757 120.732 139.908z" fill="url(#SVGID_13_)"/></g></svg>